M48
METRIC,TZ
T1C0.635
T2C0.700
T3C1.000
T4C1.200
%
G90
G05
T1
X231140Y-139700
T2
X204915Y-137986
X207455Y-137986
X209994Y-137986
T3
X202311Y-142494
X202311Y-157734
X204851Y-142494
X204851Y-157734
X207391Y-142494
X207391Y-157734
X209931Y-142494
X209931Y-157734
X212471Y-142494
X212471Y-157734
X215011Y-142494
X215011Y-157734
X217551Y-142494
X217551Y-157734
X220091Y-142494
X220091Y-157734
X222631Y-142494
X222631Y-157734
X225171Y-142494
X225171Y-157734
X227711Y-142494
X227711Y-157734
X230251Y-142494
X230251Y-157734
T4
X219075Y-137922
X224028Y-137922
X228981Y-137922
X234696Y-144018
X234696Y-148082
X234696Y-152146
X234696Y-156210
X237744Y-148082
X237744Y-152146
X237744Y-156210
T0
M30
