G04 (created by PCBNEW (22-Jun-2014 BZR 4027)-stable) date Sat 18 Feb 2017 18:36:52 GMT*
%MOIN*%
G04 Gerber Fmt 3.4, Leading zero omitted, Abs format*
%FSLAX34Y34*%
G01*
G70*
G90*
G04 APERTURE LIST*
%ADD10C,0.00590551*%
%ADD11C,0.00984252*%
%ADD12C,0.005*%
%ADD13C,0.0026*%
%ADD14C,0.004*%
%ADD15C,0.0035*%
G04 APERTURE END LIST*
G54D10*
G54D11*
X78306Y-53865D02*
X78531Y-53865D01*
X78418Y-54259D02*
X78418Y-53865D01*
X78831Y-53996D02*
X78831Y-54259D01*
X78662Y-53996D02*
X78662Y-54203D01*
X78681Y-54240D01*
X78718Y-54259D01*
X78775Y-54259D01*
X78812Y-54240D01*
X78831Y-54221D01*
X79018Y-54259D02*
X79018Y-53996D01*
X79018Y-54071D02*
X79037Y-54034D01*
X79056Y-54015D01*
X79093Y-53996D01*
X79131Y-53996D01*
X79262Y-54259D02*
X79262Y-53865D01*
X79262Y-54015D02*
X79299Y-53996D01*
X79374Y-53996D01*
X79412Y-54015D01*
X79431Y-54034D01*
X79449Y-54071D01*
X79449Y-54184D01*
X79431Y-54221D01*
X79412Y-54240D01*
X79374Y-54259D01*
X79299Y-54259D01*
X79262Y-54240D01*
X79674Y-54259D02*
X79637Y-54240D01*
X79618Y-54221D01*
X79599Y-54184D01*
X79599Y-54071D01*
X79618Y-54034D01*
X79637Y-54015D01*
X79674Y-53996D01*
X79731Y-53996D01*
X79768Y-54015D01*
X79787Y-54034D01*
X79806Y-54071D01*
X79806Y-54184D01*
X79787Y-54221D01*
X79768Y-54240D01*
X79731Y-54259D01*
X79674Y-54259D01*
X78812Y-54515D02*
X78887Y-54515D01*
X78925Y-54534D01*
X78962Y-54571D01*
X78981Y-54646D01*
X78981Y-54777D01*
X78962Y-54852D01*
X78925Y-54890D01*
X78887Y-54908D01*
X78812Y-54908D01*
X78775Y-54890D01*
X78737Y-54852D01*
X78718Y-54777D01*
X78718Y-54646D01*
X78737Y-54571D01*
X78775Y-54534D01*
X78812Y-54515D01*
X79093Y-54646D02*
X79243Y-54646D01*
X79149Y-54908D02*
X79149Y-54571D01*
X79168Y-54534D01*
X79206Y-54515D01*
X79243Y-54515D01*
X79318Y-54646D02*
X79468Y-54646D01*
X79374Y-54908D02*
X79374Y-54571D01*
X79393Y-54534D01*
X79431Y-54515D01*
X79468Y-54515D01*
X83606Y-53865D02*
X83831Y-53865D01*
X83718Y-54259D02*
X83718Y-53865D01*
X84131Y-53996D02*
X84131Y-54259D01*
X83962Y-53996D02*
X83962Y-54203D01*
X83981Y-54240D01*
X84018Y-54259D01*
X84075Y-54259D01*
X84112Y-54240D01*
X84131Y-54221D01*
X84318Y-54259D02*
X84318Y-53996D01*
X84318Y-54071D02*
X84337Y-54034D01*
X84356Y-54015D01*
X84393Y-53996D01*
X84431Y-53996D01*
X84562Y-54259D02*
X84562Y-53865D01*
X84562Y-54015D02*
X84599Y-53996D01*
X84674Y-53996D01*
X84712Y-54015D01*
X84731Y-54034D01*
X84749Y-54071D01*
X84749Y-54184D01*
X84731Y-54221D01*
X84712Y-54240D01*
X84674Y-54259D01*
X84599Y-54259D01*
X84562Y-54240D01*
X84974Y-54259D02*
X84937Y-54240D01*
X84918Y-54221D01*
X84899Y-54184D01*
X84899Y-54071D01*
X84918Y-54034D01*
X84937Y-54015D01*
X84974Y-53996D01*
X85031Y-53996D01*
X85068Y-54015D01*
X85087Y-54034D01*
X85106Y-54071D01*
X85106Y-54184D01*
X85087Y-54221D01*
X85068Y-54240D01*
X85031Y-54259D01*
X84974Y-54259D01*
X84159Y-54515D02*
X84234Y-54515D01*
X84271Y-54534D01*
X84309Y-54571D01*
X84328Y-54646D01*
X84328Y-54777D01*
X84309Y-54852D01*
X84271Y-54890D01*
X84234Y-54908D01*
X84159Y-54908D01*
X84121Y-54890D01*
X84084Y-54852D01*
X84065Y-54777D01*
X84065Y-54646D01*
X84084Y-54571D01*
X84121Y-54534D01*
X84159Y-54515D01*
X84496Y-54646D02*
X84496Y-54908D01*
X84496Y-54683D02*
X84515Y-54665D01*
X84553Y-54646D01*
X84609Y-54646D01*
X84646Y-54665D01*
X84665Y-54702D01*
X84665Y-54908D01*
G54D10*
X78100Y-59700D02*
X78650Y-59700D01*
X78650Y-59700D02*
X78650Y-58500D01*
X78650Y-58500D02*
X78100Y-58500D01*
X78100Y-55500D02*
X78100Y-55450D01*
X78100Y-55450D02*
X91300Y-55450D01*
X91300Y-55450D02*
X91300Y-62750D01*
X91300Y-62750D02*
X78100Y-62750D01*
X78100Y-62750D02*
X78100Y-55500D01*
X79975Y-53575D02*
X83375Y-53575D01*
X83375Y-53575D02*
X83375Y-55075D01*
X83375Y-55075D02*
X79975Y-55075D01*
X79975Y-55075D02*
X79975Y-53575D01*
G54D12*
X93800Y-55650D02*
X93800Y-54750D01*
X93800Y-54750D02*
X93150Y-54750D01*
X92450Y-55650D02*
X91800Y-55650D01*
X91800Y-55650D02*
X91800Y-54750D01*
X91800Y-54750D02*
X92450Y-54750D01*
X93150Y-55650D02*
X93800Y-55650D01*
G54D13*
X92239Y-54061D02*
X92161Y-54061D01*
X92161Y-54061D02*
X92161Y-54139D01*
X92239Y-54139D02*
X92161Y-54139D01*
X92239Y-54061D02*
X92239Y-54139D01*
X92023Y-53825D02*
X91886Y-53825D01*
X91886Y-53825D02*
X91886Y-53923D01*
X92023Y-53923D02*
X91886Y-53923D01*
X92023Y-53825D02*
X92023Y-53923D01*
X91886Y-53825D02*
X91846Y-53825D01*
X91846Y-53825D02*
X91846Y-54296D01*
X91886Y-54296D02*
X91846Y-54296D01*
X91886Y-53825D02*
X91886Y-54296D01*
X91886Y-54316D02*
X91846Y-54316D01*
X91846Y-54316D02*
X91846Y-54375D01*
X91886Y-54375D02*
X91846Y-54375D01*
X91886Y-54316D02*
X91886Y-54375D01*
X92554Y-53825D02*
X92514Y-53825D01*
X92514Y-53825D02*
X92514Y-54296D01*
X92554Y-54296D02*
X92514Y-54296D01*
X92554Y-53825D02*
X92554Y-54296D01*
X92554Y-54316D02*
X92514Y-54316D01*
X92514Y-54316D02*
X92514Y-54375D01*
X92554Y-54375D02*
X92514Y-54375D01*
X92554Y-54316D02*
X92554Y-54375D01*
X92023Y-53825D02*
X91964Y-53825D01*
X91964Y-53825D02*
X91964Y-53923D01*
X92023Y-53923D02*
X91964Y-53923D01*
X92023Y-53825D02*
X92023Y-53923D01*
G54D14*
X91590Y-53805D02*
X92810Y-53805D01*
X92810Y-53805D02*
X92810Y-54395D01*
X92810Y-54395D02*
X91590Y-54395D01*
X91590Y-54395D02*
X91590Y-53805D01*
X92415Y-53903D02*
G75*
G03X91983Y-53904I-215J-196D01*
G74*
G01*
X92415Y-54296D02*
G75*
G03X92416Y-53904I-215J196D01*
G74*
G01*
X91984Y-54296D02*
G75*
G03X92416Y-54295I215J196D01*
G74*
G01*
X91984Y-53903D02*
G75*
G03X91983Y-54295I215J-196D01*
G74*
G01*
G54D10*
X81681Y-59146D02*
X81869Y-59146D01*
X81644Y-59259D02*
X81775Y-58865D01*
X81906Y-59259D01*
X82262Y-59259D02*
X82131Y-59071D01*
X82037Y-59259D02*
X82037Y-58865D01*
X82187Y-58865D01*
X82225Y-58884D01*
X82244Y-58903D01*
X82262Y-58940D01*
X82262Y-58996D01*
X82244Y-59034D01*
X82225Y-59053D01*
X82187Y-59071D01*
X82037Y-59071D01*
X82431Y-59259D02*
X82431Y-58865D01*
X82525Y-58865D01*
X82581Y-58884D01*
X82619Y-58921D01*
X82637Y-58959D01*
X82656Y-59034D01*
X82656Y-59090D01*
X82637Y-59165D01*
X82619Y-59203D01*
X82581Y-59240D01*
X82525Y-59259D01*
X82431Y-59259D01*
X82825Y-58865D02*
X82825Y-59184D01*
X82843Y-59221D01*
X82862Y-59240D01*
X82900Y-59259D01*
X82975Y-59259D01*
X83012Y-59240D01*
X83031Y-59221D01*
X83050Y-59184D01*
X83050Y-58865D01*
X83237Y-59259D02*
X83237Y-58865D01*
X83425Y-59259D02*
X83425Y-58865D01*
X83650Y-59259D01*
X83650Y-58865D01*
X83912Y-58865D02*
X83987Y-58865D01*
X84025Y-58884D01*
X84062Y-58921D01*
X84081Y-58996D01*
X84081Y-59128D01*
X84062Y-59203D01*
X84025Y-59240D01*
X83987Y-59259D01*
X83912Y-59259D01*
X83875Y-59240D01*
X83837Y-59203D01*
X83818Y-59128D01*
X83818Y-58996D01*
X83837Y-58921D01*
X83875Y-58884D01*
X83912Y-58865D01*
X84156Y-59296D02*
X84456Y-59296D01*
X84550Y-59259D02*
X84550Y-58865D01*
X84700Y-58865D01*
X84737Y-58884D01*
X84756Y-58903D01*
X84774Y-58940D01*
X84774Y-58996D01*
X84756Y-59034D01*
X84737Y-59053D01*
X84700Y-59071D01*
X84550Y-59071D01*
X85168Y-59259D02*
X85037Y-59071D01*
X84943Y-59259D02*
X84943Y-58865D01*
X85093Y-58865D01*
X85131Y-58884D01*
X85149Y-58903D01*
X85168Y-58940D01*
X85168Y-58996D01*
X85149Y-59034D01*
X85131Y-59053D01*
X85093Y-59071D01*
X84943Y-59071D01*
X85412Y-58865D02*
X85487Y-58865D01*
X85524Y-58884D01*
X85562Y-58921D01*
X85581Y-58996D01*
X85581Y-59128D01*
X85562Y-59203D01*
X85524Y-59240D01*
X85487Y-59259D01*
X85412Y-59259D01*
X85374Y-59240D01*
X85337Y-59203D01*
X85318Y-59128D01*
X85318Y-58996D01*
X85337Y-58921D01*
X85374Y-58884D01*
X85412Y-58865D01*
X85656Y-59296D02*
X85956Y-59296D01*
X86049Y-59259D02*
X86049Y-58865D01*
X86181Y-59146D01*
X86312Y-58865D01*
X86312Y-59259D01*
X86499Y-59259D02*
X86499Y-58865D01*
X86912Y-59221D02*
X86893Y-59240D01*
X86837Y-59259D01*
X86799Y-59259D01*
X86743Y-59240D01*
X86705Y-59203D01*
X86687Y-59165D01*
X86668Y-59090D01*
X86668Y-59034D01*
X86687Y-58959D01*
X86705Y-58921D01*
X86743Y-58884D01*
X86799Y-58865D01*
X86837Y-58865D01*
X86893Y-58884D01*
X86912Y-58903D01*
X87305Y-59259D02*
X87174Y-59071D01*
X87080Y-59259D02*
X87080Y-58865D01*
X87230Y-58865D01*
X87268Y-58884D01*
X87287Y-58903D01*
X87305Y-58940D01*
X87305Y-58996D01*
X87287Y-59034D01*
X87268Y-59053D01*
X87230Y-59071D01*
X87080Y-59071D01*
X87549Y-58865D02*
X87624Y-58865D01*
X87662Y-58884D01*
X87699Y-58921D01*
X87718Y-58996D01*
X87718Y-59128D01*
X87699Y-59203D01*
X87662Y-59240D01*
X87624Y-59259D01*
X87549Y-59259D01*
X87512Y-59240D01*
X87474Y-59203D01*
X87455Y-59128D01*
X87455Y-58996D01*
X87474Y-58921D01*
X87512Y-58884D01*
X87549Y-58865D01*
X88640Y-55234D02*
X88640Y-54840D01*
X88790Y-54840D01*
X88828Y-54859D01*
X88846Y-54878D01*
X88865Y-54915D01*
X88865Y-54971D01*
X88846Y-55009D01*
X88828Y-55028D01*
X88790Y-55046D01*
X88640Y-55046D01*
X89109Y-54840D02*
X89184Y-54840D01*
X89221Y-54859D01*
X89259Y-54896D01*
X89278Y-54971D01*
X89278Y-55103D01*
X89259Y-55178D01*
X89221Y-55215D01*
X89184Y-55234D01*
X89109Y-55234D01*
X89071Y-55215D01*
X89034Y-55178D01*
X89015Y-55103D01*
X89015Y-54971D01*
X89034Y-54896D01*
X89071Y-54859D01*
X89109Y-54840D01*
X89390Y-54840D02*
X89615Y-54840D01*
X89503Y-55234D02*
X89503Y-54840D01*
G54D12*
X92750Y-55321D02*
X92650Y-55178D01*
X92578Y-55321D02*
X92578Y-55021D01*
X92692Y-55021D01*
X92721Y-55035D01*
X92735Y-55050D01*
X92750Y-55078D01*
X92750Y-55121D01*
X92735Y-55150D01*
X92721Y-55164D01*
X92692Y-55178D01*
X92578Y-55178D01*
X93035Y-55321D02*
X92864Y-55321D01*
X92950Y-55321D02*
X92950Y-55021D01*
X92921Y-55064D01*
X92892Y-55092D01*
X92864Y-55107D01*
G54D15*
X92007Y-53621D02*
X91864Y-53621D01*
X91864Y-53321D01*
X92107Y-53464D02*
X92207Y-53464D01*
X92250Y-53621D02*
X92107Y-53621D01*
X92107Y-53321D01*
X92250Y-53321D01*
X92378Y-53621D02*
X92378Y-53321D01*
X92450Y-53321D01*
X92492Y-53335D01*
X92521Y-53364D01*
X92535Y-53392D01*
X92550Y-53450D01*
X92550Y-53492D01*
X92535Y-53550D01*
X92521Y-53578D01*
X92492Y-53607D01*
X92450Y-53621D01*
X92378Y-53621D01*
G54D10*
X91559Y-60477D02*
X91165Y-60477D01*
X91559Y-60252D01*
X91165Y-60252D01*
X91353Y-60065D02*
X91353Y-59934D01*
X91559Y-59878D02*
X91559Y-60065D01*
X91165Y-60065D01*
X91165Y-59878D01*
X91540Y-59728D02*
X91559Y-59671D01*
X91559Y-59578D01*
X91540Y-59540D01*
X91521Y-59521D01*
X91484Y-59503D01*
X91446Y-59503D01*
X91409Y-59521D01*
X91390Y-59540D01*
X91371Y-59578D01*
X91353Y-59653D01*
X91334Y-59690D01*
X91315Y-59709D01*
X91278Y-59728D01*
X91240Y-59728D01*
X91203Y-59709D01*
X91184Y-59690D01*
X91165Y-59653D01*
X91165Y-59559D01*
X91184Y-59503D01*
X91596Y-59428D02*
X91596Y-59128D01*
X91559Y-59034D02*
X91165Y-59034D01*
X91165Y-58884D01*
X91184Y-58846D01*
X91203Y-58828D01*
X91240Y-58809D01*
X91296Y-58809D01*
X91334Y-58828D01*
X91353Y-58846D01*
X91371Y-58884D01*
X91371Y-59034D01*
X91165Y-58565D02*
X91165Y-58490D01*
X91184Y-58453D01*
X91221Y-58415D01*
X91296Y-58396D01*
X91428Y-58396D01*
X91503Y-58415D01*
X91540Y-58453D01*
X91559Y-58490D01*
X91559Y-58565D01*
X91540Y-58603D01*
X91503Y-58640D01*
X91428Y-58659D01*
X91296Y-58659D01*
X91221Y-58640D01*
X91184Y-58603D01*
X91165Y-58565D01*
X91559Y-58003D02*
X91371Y-58134D01*
X91559Y-58228D02*
X91165Y-58228D01*
X91165Y-58078D01*
X91184Y-58040D01*
X91203Y-58022D01*
X91240Y-58003D01*
X91296Y-58003D01*
X91334Y-58022D01*
X91353Y-58040D01*
X91371Y-58078D01*
X91371Y-58228D01*
X91165Y-57890D02*
X91165Y-57665D01*
X91559Y-57778D02*
X91165Y-57778D01*
M02*
