G04 (created by PCBNEW (22-Jun-2014 BZR 4027)-stable) date Sat 18 Feb 2017 18:36:52 GMT*
%MOIN*%
G04 Gerber Fmt 3.4, Leading zero omitted, Abs format*
%FSLAX34Y34*%
G01*
G70*
G90*
G04 APERTURE LIST*
%ADD10C,0.00590551*%
%ADD11C,0.0629921*%
%ADD12C,0.0433071*%
%ADD13C,0.0708661*%
%ADD14R,0.06X0.08*%
%ADD15R,0.0629X0.0709*%
G04 APERTURE END LIST*
G54D10*
G54D11*
X90650Y-62100D03*
X89650Y-62100D03*
X90650Y-56100D03*
X88650Y-62100D03*
X87650Y-62100D03*
X86650Y-62100D03*
X85650Y-62100D03*
X84650Y-62100D03*
X83650Y-62100D03*
X82650Y-62100D03*
X81650Y-62100D03*
X80650Y-62100D03*
X79650Y-62100D03*
X89650Y-56100D03*
X88650Y-56100D03*
X87650Y-56100D03*
X86650Y-56100D03*
X85650Y-56100D03*
X84650Y-56100D03*
X83650Y-56100D03*
X82650Y-56100D03*
X81650Y-56100D03*
X80650Y-56100D03*
X79650Y-56100D03*
G54D12*
X81675Y-54325D03*
X80675Y-54325D03*
X82675Y-54325D03*
G54D13*
X90150Y-54300D03*
X88200Y-54300D03*
X86250Y-54300D03*
G54D14*
X93450Y-55200D03*
X92150Y-55200D03*
G54D15*
X92759Y-54100D03*
X91641Y-54100D03*
G54D13*
X92400Y-61500D03*
X92400Y-59900D03*
X92400Y-58300D03*
X92400Y-56700D03*
X93600Y-59900D03*
X93600Y-58300D03*
X93600Y-61500D03*
M02*
