G04 (created by PCBNEW (22-Jun-2014 BZR 4027)-stable) date Sat 18 Feb 2017 18:36:52 GMT*
%MOIN*%
G04 Gerber Fmt 3.4, Leading zero omitted, Abs format*
%FSLAX34Y34*%
G01*
G70*
G90*
G04 APERTURE LIST*
%ADD10C,0.00590551*%
%ADD11C,0.0629921*%
%ADD12C,0.0433071*%
%ADD13C,0.0708661*%
%ADD14R,0.06X0.08*%
%ADD15R,0.0629X0.0709*%
%ADD16C,0.035*%
%ADD17C,0.01*%
G04 APERTURE END LIST*
G54D10*
G54D11*
X90650Y-62100D03*
X89650Y-62100D03*
X90650Y-56100D03*
X88650Y-62100D03*
X87650Y-62100D03*
X86650Y-62100D03*
X85650Y-62100D03*
X84650Y-62100D03*
X83650Y-62100D03*
X82650Y-62100D03*
X81650Y-62100D03*
X80650Y-62100D03*
X79650Y-62100D03*
X89650Y-56100D03*
X88650Y-56100D03*
X87650Y-56100D03*
X86650Y-56100D03*
X85650Y-56100D03*
X84650Y-56100D03*
X83650Y-56100D03*
X82650Y-56100D03*
X81650Y-56100D03*
X80650Y-56100D03*
X79650Y-56100D03*
G54D12*
X81675Y-54325D03*
X80675Y-54325D03*
X82675Y-54325D03*
G54D13*
X90150Y-54300D03*
X88200Y-54300D03*
X86250Y-54300D03*
G54D14*
X93450Y-55200D03*
X92150Y-55200D03*
G54D15*
X92759Y-54100D03*
X91641Y-54100D03*
G54D13*
X92400Y-61500D03*
X92400Y-59900D03*
X92400Y-58300D03*
X92400Y-56700D03*
X93600Y-59900D03*
X93600Y-58300D03*
X93600Y-61500D03*
G54D16*
X91000Y-55000D03*
G54D17*
X92400Y-58300D02*
X88450Y-58300D01*
X88450Y-58300D02*
X84650Y-62100D01*
X93600Y-58300D02*
X93600Y-56700D01*
X93600Y-56660D02*
X92920Y-55980D01*
X92920Y-55980D02*
X91980Y-55980D01*
X91980Y-55980D02*
X90940Y-57020D01*
X90940Y-57020D02*
X83570Y-57020D01*
X83570Y-57020D02*
X82650Y-56100D01*
X93600Y-56700D02*
X93600Y-56660D01*
X86250Y-54300D02*
X84450Y-54300D01*
X84450Y-54300D02*
X82650Y-56100D01*
X91641Y-54100D02*
X91641Y-54359D01*
X91641Y-54359D02*
X91000Y-55000D01*
X88200Y-54300D02*
X88200Y-54550D01*
X88200Y-54550D02*
X86650Y-56100D01*
X80675Y-54325D02*
X79535Y-54325D01*
X87050Y-62700D02*
X87650Y-62100D01*
X79140Y-62700D02*
X87050Y-62700D01*
X78660Y-62220D02*
X79140Y-62700D01*
X78660Y-55200D02*
X78660Y-62220D01*
X79535Y-54325D02*
X78660Y-55200D01*
X92400Y-59900D02*
X92400Y-59400D01*
X88250Y-57500D02*
X83650Y-62100D01*
X92900Y-57500D02*
X88250Y-57500D01*
X93000Y-57600D02*
X92900Y-57500D01*
X93000Y-58800D02*
X93000Y-57600D01*
X92400Y-59400D02*
X93000Y-58800D01*
X92400Y-61500D02*
X91300Y-61500D01*
X86550Y-61200D02*
X85650Y-62100D01*
X91000Y-61200D02*
X86550Y-61200D01*
X91300Y-61500D02*
X91000Y-61200D01*
X93450Y-55200D02*
X93450Y-54791D01*
X93450Y-54791D02*
X92759Y-54100D01*
X90650Y-56100D02*
X91250Y-56100D01*
X91250Y-56100D02*
X92150Y-55200D01*
M02*
